<svg xmlns="http://www.w3.org/2000/svg" width="65" height="65" viewBox="0 0 65 65"><path fill="#FFF" d="M34.768 14.648c-.62-.618-1.36-.928-2.23-.928-.864 0-1.607.31-2.226.9-.62.618-.93 1.36-.93 2.228 0 .867.31 1.6.9 2.227.62.6 1.4.9 2.2.9.866 0 1.608-.31 2.23-.93.618-.616.928-1.36.928-2.227.054-.84-.286-1.54-.886-2.172h.014v.002zm-1.486-11.92c3.852 3.9 6.6 7.8 8.2 11.74 1.64 4 2.5 8.698 2.5 14.24-.017 2.49-.163 5.358-.44 8.602l8.327 9.3c.217.3.3.6.198.975L48.355 61.69c-.045.17-.14.324-.276.5-.188.185-.436.293-.743.324h-2.97c-.417-.018-.73-.2-.93-.56l-4.43-8.373H25.97l-4.43 8.4c-.03.063-.093.14-.187.2-.216.22-.464.326-.742.326h-2.968c-.557-.03-.896-.295-1.02-.79L12.91 47.615c-.062-.37.016-.696.23-.976l8.33-9.256c-.278-3.247-.426-6.115-.44-8.604.015-5.8.79-10.562 2.318-14.29 1.53-3.728 4.315-7.608 8.353-11.646.217-.218.477-.33.777-.338.35-.055.6 0 .8.235h.006v-.01z"/></svg>